<svg width="212" height="35" viewBox="0 0 212 35" fill="none" xmlns="http://www.w3.org/2000/svg">
<path fill-rule="evenodd" clip-rule="evenodd" d="M53.9288 7.01094C56.3606 7.01094 58.4189 7.88047 60.1059 9.61735C61.7929 11.3542 62.6365 13.9048 62.6365 17.2681C62.6365 20.8152 61.812 23.52 60.1642 25.3794C58.5154 27.2388 56.392 28.1706 53.7953 28.1706C52.1397 28.1706 50.7645 27.7692 49.6697 26.9697C49.0718 26.5256 48.4852 25.8792 47.9131 25.0283V35H42.5626V7.455H47.7415V10.43C48.3281 9.555 48.9518 8.86594 49.6136 8.36063C50.8228 7.46156 52.2608 7.01094 53.9288 7.01094ZM30.5 6.91906C32.3003 6.91906 33.9211 7.23406 35.3647 7.86297C36.8072 8.49297 37.9985 9.485 38.9385 10.8423C39.7853 12.04 40.335 13.428 40.5862 15.0073C40.732 15.9327 40.7915 17.2648 40.7646 19.0039H25.7002C25.7844 21.0252 26.5056 22.4416 27.864 23.2542C28.6895 23.7595 29.6834 24.0122 30.8454 24.0122C32.0771 24.0122 33.0776 23.7048 33.8482 23.088C34.2677 22.7555 34.639 22.2939 34.9609 21.7022H40.4819C40.3361 22.8977 39.6676 24.1106 38.4774 25.3422C36.6244 27.3011 34.031 28.2811 30.6963 28.2811C27.9436 28.2811 25.5152 27.4553 23.4109 25.8027C21.3077 24.1511 20.2555 21.4627 20.2555 17.7384C20.2555 14.2494 21.2045 11.5741 23.1046 9.7125C25.0037 7.85094 27.468 6.91906 30.5 6.91906ZM72.8775 6.88297C75.463 6.88297 77.5707 7.385 79.2005 8.38797C80.8292 9.39203 81.7636 11.1267 82.0047 13.5898H76.5971C76.5208 12.9117 76.3245 12.3769 76.007 11.982C75.4114 11.2678 74.3963 10.9102 72.9628 10.9102C71.7827 10.9102 70.9437 11.0895 70.4423 11.4461C69.9409 11.8038 69.6908 12.2227 69.6908 12.7039C69.6908 13.3066 69.9566 13.7441 70.4894 14.0153C71.0222 14.2997 72.9044 14.7853 76.136 15.4744C78.2897 15.9677 79.9049 16.7125 80.9806 17.7111C82.0429 18.7217 82.5734 19.9839 82.5734 21.4988C82.5734 23.4948 81.8107 25.1245 80.2829 26.3878C78.7552 27.6489 76.3951 28.28 73.2006 28.28C69.9432 28.28 67.5383 27.6128 65.9858 26.2763C64.4323 24.9397 63.6561 23.2356 63.6561 21.1663H69.1412C69.2544 22.1036 69.5023 22.7686 69.8837 23.1623C70.5567 23.8645 71.8018 24.2156 73.6212 24.2156C74.6879 24.2156 75.537 24.0625 76.1663 23.753C76.7945 23.4467 77.1085 22.9841 77.1085 22.3672C77.1085 21.7766 76.8562 21.327 76.3492 21.0186C75.8422 20.7113 73.9566 20.1808 70.6925 19.4294C68.3414 18.8628 66.6858 18.1552 65.7245 17.3042C64.7632 16.4664 64.2831 15.2589 64.2831 13.6828C64.2831 11.8223 65.0346 10.2244 66.5355 8.88782C68.0385 7.55125 70.1518 6.88297 72.8775 6.88297ZM202.792 7.03938C205.06 7.03938 207.077 7.47688 208.838 8.3486C210.6 9.2225 211.481 10.8686 211.481 13.2902V22.7522C211.484 23.7738 211.496 26.7881 211.519 27.615H206.275C206.275 27.615 206.313 25.7119 206.275 25.2569C205.519 26.0493 204.645 26.7272 203.684 27.2683C202.516 27.9191 201.196 28.245 199.723 28.245C197.843 28.245 196.291 27.7255 195.067 26.6864C193.842 25.6473 193.23 24.1763 193.23 22.2709C193.23 19.7991 194.214 18.0108 196.185 16.905C197.265 16.3023 198.856 15.8725 200.954 15.6144L202.804 15.3923C203.809 15.2698 204.527 15.1156 204.959 14.9319C205.735 14.6125 206.123 14.1138 206.123 13.4378C206.123 12.6142 205.826 12.0455 205.231 11.7316C204.636 11.4188 203.762 11.2613 202.611 11.2613C201.318 11.2613 200.403 11.5697 199.867 12.1833C199.482 12.6383 199.227 13.2541 199.098 14.0284H193.891C194.006 12.2697 194.513 10.8259 195.413 9.69391C196.846 7.92422 199.306 7.03938 202.791 7.03938H202.792ZM159.938 7.03938C162.207 7.03938 164.223 7.47688 165.984 8.3486C167.746 9.2225 168.627 10.8686 168.627 13.2902V22.5105C168.627 23.1492 168.64 26.705 168.666 27.615H163.421C163.421 27.615 163.459 25.7119 163.421 25.2569C162.664 26.0493 161.791 26.7273 160.829 27.2683C159.663 27.9191 158.342 28.245 156.87 28.245C154.99 28.245 153.438 27.7255 152.213 26.6864C150.988 25.6473 150.375 24.1763 150.375 22.2709C150.375 19.7991 151.36 18.0108 153.332 16.905C154.412 16.3023 156.002 15.8725 158.099 15.6144L159.95 15.3923C160.955 15.2698 161.673 15.1156 162.106 14.9319C162.881 14.6125 163.269 14.1138 163.269 13.4378C163.269 12.6142 162.972 12.0455 162.376 11.7316C161.782 11.4188 160.908 11.2613 159.757 11.2613C158.464 11.2613 157.55 11.5697 157.012 12.1833C156.629 12.6383 156.373 13.2541 156.244 14.0284H151.038C151.151 12.2697 151.658 10.8259 152.559 9.69391C153.992 7.92422 156.451 7.03938 159.938 7.03938ZM190.772 0.0448456V27.5964H185.516V24.8073C184.744 26.0017 183.865 26.8713 182.877 27.4127C181.89 27.9552 180.664 28.2253 179.197 28.2253C176.781 28.2253 174.747 27.2738 173.096 25.3706C171.446 23.4675 170.621 21.0252 170.621 18.0436C170.621 14.607 171.433 11.9033 173.058 9.93125C174.685 7.96031 176.856 6.97485 179.576 6.97485C180.828 6.97485 181.942 7.24281 182.917 7.77875C183.888 8.31281 184.704 9.07916 185.288 10.0056V0.0448456H190.772ZM98.3568 0.0448456V10.0789C99.0444 9.14266 99.8026 8.42844 100.629 7.93516C101.61 7.31938 102.858 7.01203 104.372 7.01203C107.109 7.01203 109.252 7.96688 110.799 9.87656C112.347 11.7852 113.12 14.2494 113.12 17.2681C113.12 20.3963 112.357 22.9895 110.83 25.048C109.304 27.1042 107.176 28.1334 104.442 28.1334C102.726 28.1334 101.346 27.8009 100.303 27.1359C99.6804 26.7422 99.0062 26.052 98.2816 25.0655V27.5975H92.9491V0.0459394H98.3568V0.0448456ZM120.761 7.455V19.5956C120.761 20.7419 120.899 21.6038 121.176 22.1834C121.668 23.2061 122.63 23.7169 124.065 23.7169C125.903 23.7169 127.161 22.9895 127.842 21.5359C128.194 20.7484 128.37 19.7072 128.37 18.4133V7.455H133.854V27.5975H128.598V24.7516C128.465 24.932 128.339 25.117 128.22 25.3061C128.018 25.6145 127.779 25.8858 127.501 26.1188C126.655 26.8581 125.838 27.3634 125.05 27.6347C124.261 27.9048 123.338 28.0405 122.279 28.0405C119.226 28.0405 117.169 26.9686 116.11 24.8248C115.516 23.6436 115.22 21.9002 115.22 19.5967V7.4561H120.761V7.455ZM5.40768 0.0995331V9.17438C6.40823 8.21188 6.90851 7.89906 7.90906 7.51188C8.96121 7.105 10.2254 6.91906 11.3594 6.91906C12.6314 6.91906 13.7867 7.13453 14.8254 7.56657C15.8486 7.98566 16.7344 8.67039 17.3862 9.54625C17.9527 10.2988 18.2982 11.072 18.4249 11.8672C18.5506 12.6623 18.6134 13.9606 18.6134 15.7609V27.5975H13.0924V15.3322C13.0924 14.2472 12.904 13.3711 12.5271 12.705C12.038 11.7677 11.1081 11.2995 9.73966 11.2995C8.32072 11.2995 7.24389 11.7644 6.50918 12.6963C5.77448 13.6259 5.40768 14.9559 5.40768 16.6819V27.5975H0V0.100627H5.40768V0.0995331ZM90.2043 7.455V27.5975H84.7204V7.455H90.2043ZM148.531 6.97375C148.632 6.97375 148.717 6.97813 148.787 6.98469C148.857 6.99016 149.011 7 149.251 7.01203V12.4075C148.735 12.3501 148.216 12.3194 147.697 12.3156C145.521 12.3156 144.059 13.0047 143.313 14.385C142.895 15.1616 142.687 16.3559 142.687 17.9703V27.5975H137.241V7.455H142.401V10.9659C143.237 9.62391 143.965 8.70625 144.584 8.21297C145.596 7.38719 146.912 6.97485 148.531 6.97485V6.97375ZM163.25 17.8456C162.905 18.0534 162.555 18.223 162.204 18.352C161.851 18.4811 161.369 18.6003 160.754 18.7119L159.526 18.9328C158.375 19.1297 157.549 19.3692 157.047 19.6525C156.196 20.1316 155.772 20.8753 155.772 21.8838C155.772 22.7806 156.03 23.4292 156.55 23.8284C157.068 24.2288 157.7 24.4278 158.444 24.4278C159.623 24.4278 160.709 24.0964 161.702 23.4325C162.696 22.7675 163.212 21.5578 163.25 19.7991V17.8456ZM206.103 17.8456C205.759 18.0534 205.41 18.223 205.058 18.352C204.706 18.4811 204.222 18.6003 203.609 18.7119L202.38 18.9328C201.228 19.1297 200.403 19.3692 199.9 19.6525C199.05 20.1316 198.625 20.8753 198.625 21.8838C198.625 22.7806 198.884 23.4292 199.404 23.8284C199.923 24.2288 200.554 24.4278 201.298 24.4278C202.477 24.4278 203.564 24.0964 204.556 23.4325C205.55 22.7675 206.065 21.5578 206.104 19.7991V17.8456H206.103ZM102.855 11.6134C100.877 11.6134 99.5189 12.4819 98.7797 14.2188C98.3972 15.143 98.2053 16.3373 98.2053 17.803C98.2053 19.5278 98.6013 20.9573 99.3921 22.0905C100.183 23.2247 101.388 23.7913 103.007 23.7913C104.411 23.7913 105.501 23.2433 106.279 22.1463C107.057 21.0503 107.446 19.6088 107.446 17.8216C107.446 16.3931 107.255 15.2097 106.872 14.2734C106.145 12.5005 104.807 11.6134 102.855 11.6134ZM180.79 11.5763C179.21 11.5763 178.05 12.1581 177.309 13.323C176.569 14.4867 176.199 15.9316 176.199 17.6553C176.199 19.5158 176.575 21.0033 177.327 22.1178C178.08 23.2334 179.223 23.7913 180.753 23.7913C182.283 23.7913 183.447 23.2367 184.244 22.1277C185.041 21.0186 185.439 19.5836 185.439 17.8227C185.439 15.3584 184.8 13.5964 183.524 12.5377C182.762 11.905 181.791 11.5634 180.791 11.5763H180.79ZM52.3831 11.6134C50.401 11.6134 49.0404 12.518 48.3001 14.3292C47.9154 15.2906 47.7247 16.5102 47.7247 17.9878C47.7247 20.3284 48.3685 21.9734 49.6585 22.9217C50.4257 23.4763 51.3332 23.753 52.3808 23.753C53.9018 23.753 55.0617 23.1875 55.8614 22.0533C56.6601 20.9202 57.0594 19.4108 57.0594 17.5252C57.0594 15.9742 56.6915 14.6005 55.9568 13.405C55.2221 12.2106 54.0308 11.6134 52.3831 11.6134ZM30.5033 11.2613C29.1158 11.2613 28.0401 11.6452 27.2751 12.413C26.5112 13.1797 26.0311 14.2188 25.8348 15.5302H35.1516C35.0529 14.1323 34.5728 13.0714 33.7102 12.3473C32.8488 11.6233 31.7798 11.2613 30.5033 11.2613ZM87.3754 1.85748e-06C88.1645 -0.00028837 88.9213 0.304999 89.4796 0.848735C90.0378 1.39247 90.3518 2.13014 90.3524 2.89953C90.3522 3.28059 90.2751 3.65789 90.1254 4.00989C89.9757 4.36189 89.7564 4.68169 89.48 4.95104C89.2035 5.22039 88.8754 5.434 88.5143 5.5797C88.1532 5.72539 87.7662 5.8003 87.3754 5.80016C86.9843 5.80059 86.597 5.72585 86.2356 5.58022C85.8741 5.43459 85.5457 5.22092 85.269 4.95143C84.9923 4.68193 84.7728 4.3619 84.623 4.00964C84.4733 3.65737 84.3962 3.27977 84.3962 2.89844C84.3966 2.51738 84.474 2.14014 84.624 1.78825C84.7739 1.43636 84.9935 1.11672 85.2702 0.847575C85.5468 0.57843 85.8751 0.365053 86.2363 0.219626C86.5975 0.074199 86.9846 -0.000429286 87.3754 1.85748e-06Z" fill="#FF6000"/>
</svg>
